<svg xmlns="http://www.w3.org/2000/svg" width="106.02" height="93.038" viewBox="0 0 106.02 93.038">
  <path id="Path_17" data-name="Path 17" d="M42.008,100.618V60.59H20.732a87.9,87.9,0,0,1,.9-12.441A36.9,36.9,0,0,1,25.059,36.79a23.1,23.1,0,0,1,6.491-8.114,16.031,16.031,0,0,1,10.1-3.065V7.58a35,35,0,0,0-17.67,4.327,36.9,36.9,0,0,0-12.441,11.54A51.7,51.7,0,0,0,4.324,40.215,85.307,85.307,0,0,0,1.98,60.59v40.028Zm65.992,0V60.59H86.724a87.9,87.9,0,0,1,.9-12.441A36.9,36.9,0,0,1,91.051,36.79a23.1,23.1,0,0,1,6.491-8.114,16.031,16.031,0,0,1,10.1-3.065V7.58a35,35,0,0,0-17.67,4.327,36.9,36.9,0,0,0-12.441,11.54,51.7,51.7,0,0,0-7.212,16.768A85.307,85.307,0,0,0,67.972,60.59v40.028Z" transform="translate(-1.98 -7.58)" fill="#ec4115"/>
</svg>
