<svg xmlns="http://www.w3.org/2000/svg" width="85.235" height="77.992" viewBox="0 0 85.235 77.992">
  <path id="Path_130" data-name="Path 130" d="M84.827,69.408a1.774,1.774,0,0,0-2.349-.15c-1.775,1.412-3.418,2.877-5.747,3.466a10.94,10.94,0,0,1-7.393-.934L78.008,45.1a1.467,1.467,0,0,0-.733-1.737l-8.021-4.448V25.923A1.6,1.6,0,0,0,67.589,24.4H64.26V19.83a1.6,1.6,0,0,0-1.665-1.523H57.351v-4.57a1.6,1.6,0,0,0-1.665-1.523H47.612V1.548A1.6,1.6,0,0,0,45.947.025H39.288a1.6,1.6,0,0,0-1.665,1.523V12.212H29.55a1.6,1.6,0,0,0-1.665,1.523v4.57H22.641a1.6,1.6,0,0,0-1.665,1.523V24.4H17.647a1.6,1.6,0,0,0-1.665,1.523V38.911L7.961,43.359A1.467,1.467,0,0,0,7.228,45.1l8.652,26.64c-.148-.455-2.812-.754-3.283-.81C7.75,70.351,4.065,72.574.573,75.352A1.435,1.435,0,0,0,.409,77.5a1.8,1.8,0,0,0,2.348.15c3.6-2.862,7.653-5.043,12.412-2.865,4.306,1.97,8.763,2.815,13.247.655,3.616-1.742,7.106-3.246,11.142-1.487l4.15,1.808a13.651,13.651,0,0,0,11.12-.1C57,74.673,59.2,73.353,61.674,73.2a14.616,14.616,0,0,1,6.9,1.651,13.816,13.816,0,0,0,9.138.757c2.786-.727,4.813-2.351,6.947-4.048A1.435,1.435,0,0,0,84.827,69.408Zm-18.9-41.961v9.618L48.578,27.447ZM40.953,3.072h3.329v9.141H40.953ZM31.214,15.259H54.021v3.047H31.214Zm-11.9,12.187H36.658L19.312,37.065Zm21.642,43.74c0-.271-2.373-.77-2.684-.832a13.921,13.921,0,0,0-8.634,1.056c-1.906.918-3.744,1.989-5.924,2.246H23.7a10.384,10.384,0,0,1-3.81-.273l-9.1-28.03L40.953,28.628ZM24.306,24.4V21.353H60.93V24.4ZM66.261,70.569c.018-.471-4.668-.467-4.982-.437-2.89.28-5.389,1.64-7.939,2.807a10.779,10.779,0,0,1-9.057-.3V28.628L74.45,45.355Z" transform="translate(-0.001 -0.025)" fill="#ec4115"/>
</svg>
