<svg xmlns="http://www.w3.org/2000/svg" xmlns:xlink="http://www.w3.org/1999/xlink" width="177" height="44.438" viewBox="0 0 177 44.438">
  <defs>
    <clipPath id="clip-path">
      <rect id="Rectangle_3" data-name="Rectangle 3" width="177" height="44.438" fill="none"/>
    </clipPath>
  </defs>
  <g id="Group_4" data-name="Group 4" transform="translate(0 0)">
    <g id="Group_3" data-name="Group 3" transform="translate(0 0)" clip-path="url(#clip-path)">
      <path id="Path_7" data-name="Path 7" d="M31.1,8.345H25.567A1.274,1.274,0,0,0,24.3,9.618V24.466c0,2.126-.814,2.864-1.616,3.3a5.934,5.934,0,0,1-2.373.648H12.1c-2.236,0-2.982-.814-3.414-1.613a5.683,5.683,0,0,1-.606-2.334V5.59A1.269,1.269,0,0,0,6.806,4.319H1.274A1.272,1.272,0,0,0,0,5.59V24.374a13.01,13.01,0,0,0,3.4,8.764A11.708,11.708,0,0,0,12.1,36.5h8.245a13.8,13.8,0,0,0,5.8-1.422c4.017-2.009,6.23-5.773,6.23-10.607V9.618A1.274,1.274,0,0,0,31.1,8.345" transform="translate(0 7.797)" fill="#ec4115"/>
      <path id="Path_8" data-name="Path 8" d="M44.21,8.366H38.594a1.232,1.232,0,0,0-1.229,1.229V22.538a.639.639,0,0,1-.438.6.647.647,0,0,1-.713-.224L22.694,4.8a1.23,1.23,0,0,0-.987-.494H14.475a1.228,1.228,0,0,0-1.229,1.229V23.265A1.229,1.229,0,0,0,14.475,24.5h5.616a1.23,1.23,0,0,0,1.232-1.232V18.381A.638.638,0,0,1,22.47,18l13.563,18.17a1.232,1.232,0,0,0,.982.494h7.2a1.233,1.233,0,0,0,1.232-1.229V9.6A1.235,1.235,0,0,0,44.21,8.366" transform="translate(23.912 7.775)" fill="#ec4115"/>
      <path id="Path_9" data-name="Path 9" d="M33.228,0H27.693a1.269,1.269,0,0,0-1.268,1.271V35.026A1.271,1.271,0,0,0,27.693,36.3h5.535A1.273,1.273,0,0,0,34.5,35.026V1.271A1.272,1.272,0,0,0,33.228,0" transform="translate(47.704 0)" fill="#ec4115"/>
      <path id="Path_10" data-name="Path 10" d="M52.375,8.5H39.086V3.253a1.272,1.272,0,0,0-1.274-1.271H32.281A1.27,1.27,0,0,0,31.01,3.253V39.536a1.27,1.27,0,0,0,1.271,1.271h5.532a1.272,1.272,0,0,0,1.274-1.271V17.851a1.272,1.272,0,0,1,1.271-1.274H52.375a1.272,1.272,0,0,0,1.274-1.271V9.772A1.272,1.272,0,0,0,52.375,8.5" transform="translate(55.981 3.578)" fill="#ec4115"/>
      <path id="Path_11" data-name="Path 11" d="M64.086,20.423a7.991,7.991,0,0,1-5.5,7.672,8.084,8.084,0,1,1-3.669-15.673,1.267,1.267,0,0,0,1.088-1.26V5.6a1.276,1.276,0,0,0-1.4-1.265A16.154,16.154,0,1,0,72.165,20.426H64.086Z" transform="translate(71.952 7.809)" fill="#ec4115"/>
      <path id="Path_12" data-name="Path 12" d="M80.971,7.072a10.512,10.512,0,0,0-7.03-2.766H52.9A1.273,1.273,0,0,0,51.634,5.58v5.532A1.271,1.271,0,0,0,52.9,12.382H74.023a2.606,2.606,0,0,1,1.31.474,2.331,2.331,0,0,1,.382,1.473c0,2-1.431,2.067-2.14,2.1H56.93A1.267,1.267,0,0,0,55.662,17.7V35.343a1.265,1.265,0,0,0,1.268,1.271h5.535a1.27,1.27,0,0,0,1.271-1.271V25.772A1.264,1.264,0,0,1,65.007,24.5h8.612a11.683,11.683,0,0,0,4.873-1.2,9.507,9.507,0,0,0,5.3-8.977,9.769,9.769,0,0,0-2.816-7.257" transform="translate(93.212 7.773)" fill="#ec4115"/>
    </g>
  </g>
</svg>
