<svg xmlns="http://www.w3.org/2000/svg" xmlns:xlink="http://www.w3.org/1999/xlink" width="177" height="44.438" viewBox="0 0 177 44.438">
  <defs>
    <clipPath id="clip-path">
      <rect id="Rectangle_168" data-name="Rectangle 168" width="177" height="44.438" fill="none"/>
    </clipPath>
  </defs>
  <g id="Group_2572" data-name="Group 2572" clip-path="url(#clip-path)">
    <path id="Path_4677" data-name="Path 4677" d="M31.1,21.589H25.568A1.274,1.274,0,0,0,24.3,22.862V37.711c0,2.126-.813,2.863-1.615,3.3a5.954,5.954,0,0,1-2.374.65H12.1c-2.236,0-2.983-.815-3.415-1.613a5.761,5.761,0,0,1-.606-2.334V18.835a1.268,1.268,0,0,0-1.269-1.273H1.273A1.275,1.275,0,0,0,0,18.835V37.618a13.019,13.019,0,0,0,3.4,8.764A11.709,11.709,0,0,0,12.1,49.741h8.245a13.817,13.817,0,0,0,5.8-1.425c4.016-2.008,6.229-5.773,6.229-10.6V22.862A1.274,1.274,0,0,0,31.1,21.589" transform="translate(0 -5.448)" fill="#fff"/>
    <path id="Path_4678" data-name="Path 4678" d="M84.833,21.574H79.218a1.232,1.232,0,0,0-1.231,1.23V35.745a.637.637,0,0,1-1.147.381L63.316,18.009a1.228,1.228,0,0,0-.986-.495H55.1a1.229,1.229,0,0,0-1.23,1.23v17.73A1.229,1.229,0,0,0,55.1,37.7h5.616a1.23,1.23,0,0,0,1.23-1.231V31.589a.637.637,0,0,1,1.147-.381L76.655,49.376a1.23,1.23,0,0,0,.982.5h7.2a1.231,1.231,0,0,0,1.23-1.231V22.806a1.232,1.232,0,0,0-1.23-1.232" transform="translate(-16.71 -5.433)" fill="#fff"/>
    <path id="Path_4679" data-name="Path 4679" d="M114.267,0h-5.534a1.269,1.269,0,0,0-1.269,1.271V35.026a1.272,1.272,0,0,0,1.269,1.273h5.534a1.273,1.273,0,0,0,1.273-1.273V1.271A1.272,1.272,0,0,0,114.267,0" transform="translate(-33.336 0)" fill="#fff"/>
    <path id="Path_4680" data-name="Path 4680" d="M147.475,14.581H134.187V9.332a1.273,1.273,0,0,0-1.273-1.271H127.38a1.269,1.269,0,0,0-1.269,1.271V45.616a1.269,1.269,0,0,0,1.269,1.271h5.534a1.272,1.272,0,0,0,1.273-1.271V23.93a1.272,1.272,0,0,1,1.269-1.273h12.019a1.272,1.272,0,0,0,1.273-1.271V15.852a1.272,1.272,0,0,0-1.273-1.271" transform="translate(-39.12 -2.501)" fill="#fff"/>
    <path id="Path_4681" data-name="Path 4681" d="M239.32,20.278a10.511,10.511,0,0,0-7.031-2.765H211.252a1.272,1.272,0,0,0-1.27,1.271v5.534a1.272,1.272,0,0,0,1.27,1.271h21.119a2.582,2.582,0,0,1,1.309.473,2.319,2.319,0,0,1,.381,1.472,1.879,1.879,0,0,1-2.138,2.095H215.279A1.269,1.269,0,0,0,214.01,30.9V48.548a1.268,1.268,0,0,0,1.269,1.271h5.534a1.271,1.271,0,0,0,1.273-1.271V38.977a1.264,1.264,0,0,1,1.269-1.271h8.611a11.679,11.679,0,0,0,4.873-1.193,9.51,9.51,0,0,0,5.3-8.978,9.765,9.765,0,0,0-2.818-7.257" transform="translate(-65.137 -5.433)" fill="#fff"/>
    <path id="Path_4682" data-name="Path 4682" d="M194.04,34.142a1.266,1.266,0,0,0-.942-.421h-5.567a1.266,1.266,0,0,0-1.258,1.089,8.087,8.087,0,0,1-5.429,6.567l-.026.008.006-.021A8.07,8.07,0,0,1,170.6,31.139l-.021.006c0-.009,0-.018.008-.026a8.087,8.087,0,0,1,6.568-5.429,1.266,1.266,0,0,0,1.089-1.257V18.865a1.264,1.264,0,0,0-.421-.942,1.28,1.28,0,0,0-.982-.324A16.154,16.154,0,0,0,166.347,44.62c.036.039.074.077.11.116.124.132.248.264.377.392s.26.253.393.378l.115.11a16.154,16.154,0,0,0,27.021-10.492,1.28,1.28,0,0,0-.324-.982" transform="translate(-50.281 -5.457)" fill="#fff"/>
  </g>
</svg>
